<?xml version="1.0" encoding="UTF-8"?>
<svg width="104px" height="32px" viewBox="0 0 104 32" version="1.1" xmlns="http://www.w3.org/2000/svg" xmlns:xlink="http://www.w3.org/1999/xlink">
    <!-- Generator: Sketch 48.2 (47327) - http://www.bohemiancoding.com/sketch -->
    <title>Group</title>
    <desc>Created with Sketch.</desc>
    <defs></defs>
    <g id="Artboard" stroke="none" stroke-width="1" fill="none" fill-rule="evenodd" transform="translate(-376.000000, -8.000000)">
        <g id="Group" transform="translate(377.000000, 9.000000)" fill="#000000">
            <g id="Group-2" stroke="#000000" stroke-width="0.35">
                <path d="M22.5918023,0 L17.0003154,3.2746905 L11.4081977,0 L0,6.68173462 L0,20.0443894 L17.0003154,30 L34,20.0442148 L34,6.68161826 L22.5918023,0 Z M11.6897421,0.759098948 L16.4363663,3.5387578 L11.6897421,6.31864935 L11.6897421,0.759098948 Z M22.8733467,0.759157126 L27.6191106,3.5387578 L22.8733467,6.318533 L22.8733467,0.759157126 Z M17.5635763,3.5387578 L22.3097417,0.759157126 L22.3097417,6.31864935 L17.5635763,3.5387578 Z M6.38014382,3.5387578 L11.1261371,0.759157126 L11.1261371,6.31864935 L6.38014382,3.5387578 Z M28.4643747,4.03384762 L33.2107121,6.813681 L28.4643747,9.59281625 L28.4643747,4.03384762 Z M23.1551205,6.813681 L27.9008271,4.03384762 L27.9008271,9.59275808 L23.1551205,6.813681 Z M11.9715733,6.81373918 L16.7181975,4.03384762 L16.7181975,9.59287443 L11.9715733,6.81373918 Z M17.2817451,4.0339058 L22.0279105,6.81373918 L17.2817451,9.59287443 L17.2817451,4.0339058 Z M6.09837,4.0339058 L10.8443633,6.81373918 L6.09837,9.59281625 L6.09837,4.0339058 Z M0.788714338,6.81373918 L5.53482237,4.0339058 L5.53482237,9.59281625 L0.788714338,6.81373918 Z M28.7462059,10.0878479 L33.4925433,7.30865447 L33.4925433,12.8676813 L28.7462059,10.0878479 Z M22.8733467,7.30871265 L27.6190532,10.0878479 L22.8733467,12.8676813 L22.8733467,7.30871265 Z M17.5635763,10.0878479 L22.3097417,7.30877083 L22.3097417,12.8676813 L17.5635763,10.0878479 Z M11.6897421,7.30877083 L16.4363663,10.0878479 L11.6897421,12.8677395 L11.6897421,7.30877083 Z M6.38014382,10.0878479 L11.1261371,7.30877083 L11.1261371,12.8676813 L6.38014382,10.0878479 Z M0.50694052,7.30877083 L5.2529912,10.0878479 L0.50694052,12.8676813 L0.50694052,7.30877083 Z M28.4643747,10.5829377 L33.2107695,13.3627711 L28.4643747,16.1423136 L28.4643747,10.5829377 Z M23.1550631,13.3627711 L27.9008271,10.5829377 L27.9008271,16.1423136 L23.1550631,13.3627711 Z M11.9715159,13.3628293 L16.7181975,10.5829377 L16.7181975,16.14243 L11.9715159,13.3628293 Z M17.2817451,10.5829959 L22.0279105,13.3628293 L17.2817451,16.1423718 L17.2817451,10.5829959 Z M6.09837,10.5829959 L10.8444207,13.3628293 L6.09837,16.1423718 L6.09837,10.5829959 Z M0.788656985,13.3628293 L5.53482237,10.5829959 L5.53482237,16.1423718 L0.788656985,13.3628293 Z M28.7461485,16.6374616 L33.4925433,13.8578609 L33.4925433,19.4171786 L28.7461485,16.6374616 Z M22.8733467,13.8578609 L27.6191106,16.6374616 L22.8733467,19.4171205 L22.8733467,13.8578609 Z M11.6897421,13.8578609 L16.4363663,16.6375198 L11.6897421,19.417295 L11.6897421,13.8578609 Z M17.5635763,16.6375198 L22.3097417,13.8579191 L22.3097417,19.417295 L17.5635763,16.6375198 Z M6.38014382,16.6375198 L11.1261371,13.8579191 L11.1261371,19.4172368 L6.38014382,16.6375198 Z M0.50694052,13.8579191 L5.25304855,16.6375198 L0.50694052,19.417295 L0.50694052,13.8579191 Z M28.4643747,17.1324351 L33.2107695,19.9122685 L28.4643747,22.6917528 L28.4643747,17.1324351 Z M23.1550631,19.9122685 L27.9008271,17.1325514 L27.9008271,22.6917528 L23.1550631,19.9122685 Z M17.2817451,17.1326096 L22.0279105,19.9123848 L17.2817451,22.6917528 L17.2817451,17.1326096 Z M11.9715733,19.9123848 L16.7181975,17.1326096 L16.7181975,22.6918109 L11.9715733,19.9123848 Z M6.09837,17.1326096 L10.8443633,19.9123848 L6.09837,22.6917528 L6.09837,17.1326096 Z M0.788714338,19.9123848 L5.53482237,17.1326096 L5.53482237,22.6917528 L0.788714338,19.9123848 Z M22.8733467,20.4073583 L27.6190532,23.1867844 L22.8733467,25.9662687 L22.8733467,20.4073583 Z M11.6897421,20.4074165 L16.4363663,23.1867844 L11.6897421,25.9663269 L11.6897421,20.4074165 Z M17.5636337,23.1867844 L22.3097417,20.4074746 L22.3097417,25.9662687 L17.5636337,23.1867844 Z M6.38020117,23.1867844 L11.1261371,20.4074746 L11.1261371,25.9662687 L6.38020117,23.1867844 Z M11.9718027,26.4436144 L16.7185416,23.6641301 L16.7185416,29.2232151 L11.9718027,26.4436144 Z M17.2820893,23.6641883 L22.0281973,26.4436144 L17.2820893,29.2232151 L17.2820893,23.6641883 Z" id="heart"></path>
            </g>
            <path d="M45.6880998,18 C43.9611324,18 42.6732246,17.3043478 42,16.4347826 L42.9366603,15.3188406 C43.5659789,16.0434783 44.5904511,16.4927536 45.6295585,16.4927536 C46.9174664,16.4927536 47.6638676,15.8985507 47.6638676,15.0144928 C47.6638676,14.057971 46.9028311,13.6376812 45.4978407,13.6376812 C45.0880518,13.6376812 44.5319098,13.6521739 44.3855566,13.6666667 L44.3855566,12.1304348 C44.5465451,12.1449275 45.1173225,12.1449275 45.4978407,12.1449275 C46.6540307,12.1449275 47.5175144,11.7536232 47.5175144,10.8695652 C47.5175144,9.98550725 46.6247601,9.52173913 45.5417466,9.52173913 C44.5319098,9.52173913 43.7123321,9.88405797 43.0098369,10.5942029 L42.1317179,9.53623188 C42.8927543,8.65217391 44.078215,8.01449275 45.7027351,8.01449275 C47.8102207,8.01449275 49.2152111,9 49.2152111,10.6086957 C49.2152111,11.9130435 48.1029271,12.6666667 47.1077255,12.826087 C48.0443858,12.9275362 49.3761996,13.6811594 49.3761996,15.173913 C49.3761996,16.826087 47.9565739,18 45.6880998,18 Z M54.7327255,17.826087 L51.0885317,17.826087 L51.0885317,8.15942029 L54.7180902,8.15942029 C57.7768714,8.15942029 59.8258157,10.1594203 59.8258157,12.9855072 C59.8258157,15.8405797 57.7768714,17.826087 54.7327255,17.826087 Z M54.7180902,16.3333333 C56.8402111,16.3333333 58.0695777,14.826087 58.0695777,12.9855072 C58.0695777,11.1304348 56.8987524,9.65217391 54.7327255,9.65217391 L52.8008637,9.65217391 L52.8008637,16.3333333 L54.7180902,16.3333333 Z M73.7586372,17.826087 L72.0463052,17.826087 L72.0463052,13.5942029 L66.9678503,13.5942029 L66.9678503,17.826087 L65.2555182,17.826087 L65.2555182,8.15942029 L66.9678503,8.15942029 L66.9678503,12.1014493 L72.0463052,12.1014493 L72.0463052,8.15942029 L73.7586372,8.15942029 L73.7586372,17.826087 Z M80.0664587,18 C77.2418426,18 75.8368522,16.3913043 75.8368522,14 L75.8368522,8.15942029 L77.5784549,8.15942029 L77.5784549,13.9565217 C77.5784549,15.4927536 78.4419386,16.4927536 80.0664587,16.4927536 C81.6909789,16.4927536 82.5544626,15.4927536 82.5544626,13.9565217 L82.5544626,8.15942029 L84.2960653,8.15942029 L84.2960653,14 C84.2960653,16.3913043 82.9057102,18 80.0664587,18 Z M91.306382,17.826087 L86.3742802,17.826087 L86.3742802,8.15942029 L91.1746641,8.15942029 C92.9748081,8.15942029 93.9553743,9.26086957 93.9553743,10.6231884 C93.9553743,11.826087 93.1650672,12.6521739 92.2576775,12.8405797 C93.3114203,13 94.1456334,14.0289855 94.1456334,15.2028986 C94.1456334,16.7101449 93.1504319,17.826087 91.306382,17.826087 Z M90.8380518,12.1449275 C91.7015355,12.1449275 92.1991363,11.6376812 92.1991363,10.8985507 C92.1991363,10.1884058 91.7015355,9.65217391 90.8380518,9.65217391 L88.0866123,9.65217391 L88.0866123,12.1449275 L90.8380518,12.1449275 Z M90.9112284,16.3333333 C91.8332534,16.3333333 92.3893954,15.826087 92.3893954,14.9855072 C92.3893954,14.2608696 91.8771593,13.6376812 90.9112284,13.6376812 L88.0866123,13.6376812 L88.0866123,16.3333333 L90.9112284,16.3333333 Z M99.2240883,18 C97.4239443,18 96.1214012,17.3623188 95.2432821,16.4637681 L96.2092131,15.1449275 C96.8678023,15.8550725 97.9361804,16.4927536 99.2972649,16.4927536 C100.702255,16.4927536 101.243762,15.8115942 101.243762,15.1594203 C101.243762,13.1304348 95.5652591,14.3913043 95.5652591,10.8405797 C95.5652591,9.23188406 96.9702495,8 99.1216411,8 C100.629079,8 101.873081,8.49275362 102.765835,9.36231884 L101.799904,10.6231884 C101.024232,9.85507246 99.9851248,9.50724638 98.9606526,9.50724638 C97.9654511,9.50724638 97.3214971,10 97.3214971,10.7101449 C97.3214971,12.5217391 103,11.4057971 103,15 C103,16.6086957 101.84381,18 99.2240883,18 Z" id="3D-HUBS"></path>
        </g>
    </g>
</svg>
